HIERARCHY
ROOT joint_0
{
	OFFSET 0.000000 0.000000 0.000000
	CHANNELS 6 Xposition Yposition Zposition Zrotation Yrotation Xrotation 
	JOINT joint_1
	{
		OFFSET 0.587158 0.057678 95.682007
		CHANNELS 3 Zrotation Yrotation Xrotation
		JOINT joint_2
		{
			OFFSET -7.116699 -0.219910 87.157959
			CHANNELS 3 Zrotation Yrotation Xrotation
			JOINT joint_3
			{
				OFFSET -5.892822 -0.290222 87.151001
				CHANNELS 3 Zrotation Yrotation Xrotation
				JOINT joint_4
				{
					OFFSET 5.544678 -0.099609 123.768066
					CHANNELS 3 Zrotation Yrotation Xrotation
					JOINT joint_5
					{
						OFFSET 41.981201 4.519775 84.257935
						CHANNELS 3 Zrotation Yrotation Xrotation
						End Site
						{
							OFFSET 0.000000 0.000000 0.000000
						}
					}
				}
				JOINT joint_6
				{
					OFFSET 3.940918 -26.976501 69.308105
					CHANNELS 3 Zrotation Yrotation Xrotation
					JOINT joint_7
					{
						OFFSET 4.776123 -152.592468 -16.842041
						CHANNELS 3 Zrotation Yrotation Xrotation
						JOINT joint_8
						{
							OFFSET 54.421875 -30.424072 -248.864014
							CHANNELS 3 Zrotation Yrotation Xrotation
							JOINT joint_9
							{
								OFFSET 42.120117 -33.387878 -236.524963
								CHANNELS 3 Zrotation Yrotation Xrotation
								End Site
								{
									OFFSET 0.000000 0.000000 0.000000
								}
							}
						}
					}
				}
				JOINT joint_10
				{
					OFFSET 2.312012 26.904114 69.425049
					CHANNELS 3 Zrotation Yrotation Xrotation
					JOINT joint_11
					{
						OFFSET 0.971436 152.197815 -20.626953
						CHANNELS 3 Zrotation Yrotation Xrotation
						JOINT joint_12
						{
							OFFSET 49.954102 28.991455 -249.970093
							CHANNELS 3 Zrotation Yrotation Xrotation
							JOINT joint_13
							{
								OFFSET 48.146973 19.598389 -236.919922
								CHANNELS 3 Zrotation Yrotation Xrotation
								End Site
								{
									OFFSET 0.000000 0.000000 0.000000
								}
							}
						}
					}
				}
			}
		}
	}
	JOINT joint_14
	{
		OFFSET 16.305664 -89.442932 -108.224976
		CHANNELS 3 Zrotation Yrotation Xrotation
		JOINT joint_15
		{
			OFFSET -22.282471 13.437134 -412.904968
			CHANNELS 3 Zrotation Yrotation Xrotation
			JOINT joint_16
			{
				OFFSET -45.426025 14.484802 -445.892029
				CHANNELS 3 Zrotation Yrotation Xrotation
				JOINT joint_17
				{
					OFFSET 173.389404 -9.944031 -76.473001
					CHANNELS 3 Zrotation Yrotation Xrotation
					End Site
					{
						OFFSET 0.000000 0.000000 0.000000
					}
				}
			}
		}
	}
	JOINT joint_18
	{
		OFFSET 13.392822 89.408875 -108.653992
		CHANNELS 3 Zrotation Yrotation Xrotation
		JOINT joint_19
		{
			OFFSET -29.032959 24.483521 -411.977966
			CHANNELS 3 Zrotation Yrotation Xrotation
			JOINT joint_20
			{
				OFFSET -30.530029 28.986328 -446.453018
				CHANNELS 3 Zrotation Yrotation Xrotation
				JOINT joint_21
				{
					OFFSET 170.330078 33.400757 -76.698997
					CHANNELS 3 Zrotation Yrotation Xrotation
					End Site
					{
						OFFSET 0.000000 0.000000 0.000000
					}
				}
			}
		}
	}
}
MOTION
Frames: 18
Frame Time: 0.016667
-1822.212769 915.114258 1056.233032 5.564201 -1.266235 1.703188 -0.248522 5.751018 -1.939356 -0.083591 -1.177117 0.449420 -0.132334 1.098941 -0.301944 0.726043 4.827306 -2.060975 0.000000 0.000000 0.000000 -0.371509 2.026448 0.486808 -0.187981 1.992716 0.001931 -0.200804 -0.136877 -1.229660 0.000000 0.000000 0.000000 1.894352 0.744204 -0.272012 -0.216396 0.478025 -1.622156 -0.207116 -3.050616 0.403021 0.000000 0.000000 0.000000 1.031002 0.979717 -3.791716 0.987450 6.923124 0.846197 0.742009 -7.283417 -0.093812 0.000000 0.000000 0.000000 1.355891 -0.457478 0.582426 1.511013 1.516836 0.120102 1.416133 0.383242 0.559381 0.000000 0.000000 0.000000 
-1822.015503 914.978760 1056.193970 5.580304 -1.245670 1.692701 -0.227979 5.748871 -1.936828 -0.062490 -1.172906 0.451179 -0.111651 1.095140 -0.304158 0.734057 4.839551 -2.077937 0.000000 0.000000 0.000000 -0.304923 2.183906 0.520294 -0.140070 2.161734 0.329855 -0.293680 0.319799 -1.372221 0.000000 0.000000 0.000000 1.889772 0.636516 -0.282883 -0.151125 0.375505 -1.207924 -0.108974 -2.511207 0.627592 0.000000 0.000000 0.000000 1.024752 0.964823 -3.781016 0.981522 6.931854 0.865225 0.738034 -7.295722 -0.096287 0.000000 0.000000 0.000000 1.348456 -0.468175 0.616750 1.508114 1.510825 0.097514 1.411974 0.382020 0.557748 0.000000 0.000000 0.000000 
-1821.835205 914.884888 1056.167969 5.590388 -1.223368 1.684846 -0.213539 5.745057 -1.929302 -0.048079 -1.168297 0.451510 -0.097472 1.091826 -0.305298 0.745492 4.849614 -2.101287 0.000000 0.000000 0.000000 -0.240225 2.301922 0.556941 -0.097032 2.290330 0.614927 -0.381499 0.742311 -1.508713 0.000000 0.000000 0.000000 1.875847 0.526494 -0.287575 -0.091530 0.271481 -0.812908 0.002772 -1.959143 0.918823 0.000000 0.000000 0.000000 1.021084 0.952260 -3.773543 0.977872 6.929630 0.879644 0.735916 -7.300961 -0.097527 0.000000 0.000000 0.000000 1.344027 -0.479061 0.641620 1.506867 1.501563 0.081316 1.410190 0.382742 0.556802 0.000000 0.000000 0.000000 
-1821.653931 914.847290 1056.160034 5.597494 -1.196639 1.681100 -0.208949 5.737499 -1.919999 -0.043549 -1.167206 0.453846 -0.093331 1.092340 -0.307385 0.761281 4.857257 -2.132893 0.000000 0.000000 0.000000 -0.181459 2.374849 0.596247 -0.058614 2.372297 0.855007 -0.465736 1.136386 -1.643973 0.000000 0.000000 0.000000 1.851548 0.423541 -0.278934 -0.040803 0.175332 -0.455608 0.129465 -1.399385 1.288217 0.000000 0.000000 0.000000 1.019336 0.944995 -3.769442 0.975703 6.907888 0.885210 0.734577 -7.295408 -0.097777 0.000000 0.000000 0.000000 1.341987 -0.489347 0.650310 1.505178 1.482942 0.079124 1.409935 0.389718 0.555319 0.000000 0.000000 0.000000 
-1821.490723 914.852234 1056.163940 5.598492 -1.168616 1.680095 -0.209959 5.731287 -1.905143 -0.045347 -1.169447 0.453695 -0.095218 1.094092 -0.308057 0.779626 4.862631 -2.169293 0.000000 0.000000 0.000000 -0.128004 2.409391 0.630723 -0.023423 2.414723 1.059831 -0.545044 1.496336 -1.776663 0.000000 0.000000 0.000000 1.815521 0.319273 -0.265225 0.003853 0.078919 -0.115049 0.268734 -0.825219 1.723524 0.000000 0.000000 0.000000 1.020352 0.940505 -3.768960 0.975936 6.875214 0.886360 0.735237 -7.283044 -0.096743 0.000000 0.000000 0.000000 1.342843 -0.499350 0.649287 1.504962 1.461078 0.083578 1.411895 0.398626 0.554452 0.000000 0.000000 0.000000 
-1821.377930 914.924866 1056.171997 5.585051 -1.147041 1.681073 -0.216543 5.730852 -1.889129 -0.053322 -1.169244 0.452158 -0.103035 1.095378 -0.306674 0.797724 4.857780 -2.203850 0.000000 0.000000 0.000000 -0.083343 2.415170 0.653227 0.005218 2.426818 1.213646 -0.598179 1.739386 -1.862425 0.000000 0.000000 0.000000 1.792688 0.229919 -0.244951 0.044758 -0.004563 0.203762 0.401353 -0.323631 2.168833 0.000000 0.000000 0.000000 1.025860 0.930856 -3.775644 0.980948 6.858428 0.888178 0.740344 -7.274904 -0.094019 0.000000 0.000000 0.000000 1.349130 -0.505311 0.642157 1.509879 1.445236 0.087183 1.418048 0.402057 0.556542 0.000000 0.000000 0.000000 
-1821.336426 915.085388 1056.177979 5.552760 -1.136469 1.683872 -0.229846 5.747170 -1.870153 -0.069287 -1.170431 0.444934 -0.118117 1.096271 -0.300503 0.815579 4.838761 -2.236012 0.000000 0.000000 0.000000 -0.052416 2.390026 0.659017 0.026970 2.405753 1.310121 -0.617326 1.837808 -1.885122 0.000000 0.000000 0.000000 1.790368 0.162980 -0.210753 0.080462 -0.068618 0.484211 0.528231 0.076425 2.640042 0.000000 0.000000 0.000000 1.037336 0.911981 -3.791840 0.992555 6.871955 0.892996 0.751717 -7.276517 -0.089143 0.000000 0.000000 0.000000 1.362367 -0.504525 0.630224 1.521932 1.439777 0.085843 1.429475 0.395542 0.562949 0.000000 0.000000 0.000000 
-1821.345459 915.314514 1056.187988 5.505196 -1.132444 1.688539 -0.248252 5.769753 -1.849184 -0.091087 -1.170190 0.435785 -0.138776 1.097122 -0.292706 0.832714 4.810504 -2.265539 0.000000 0.000000 0.000000 -0.031236 2.336686 0.649749 0.043535 2.354768 1.359352 -0.609755 1.819070 -1.861896 0.000000 0.000000 0.000000 1.800147 0.111483 -0.167499 0.113070 -0.119012 0.740505 0.649335 0.404872 3.121068 0.000000 0.000000 0.000000 1.053600 0.888008 -3.815427 1.009195 6.901299 0.898881 0.767824 -7.282068 -0.082434 0.000000 0.000000 0.000000 1.381325 -0.499053 0.612394 1.539364 1.439625 0.083390 1.445334 0.383343 0.572460 0.000000 0.000000 0.000000 
-1821.385132 915.583008 1056.207031 5.444956 -1.133002 1.693943 -0.265827 5.790556 -1.826932 -0.112332 -1.170858 0.427350 -0.158956 1.097013 -0.285669 0.846256 4.787441 -2.288823 0.000000 0.000000 0.000000 -0.013260 2.273438 0.625115 0.055059 2.293198 1.371650 -0.576413 1.681606 -1.797824 0.000000 0.000000 0.000000 1.821546 0.069785 -0.129900 0.150463 -0.160795 1.007860 0.745567 0.664434 3.508200 0.000000 0.000000 0.000000 1.074759 0.867394 -3.843050 1.030308 6.928743 0.904861 0.788184 -7.286579 -0.073799 0.000000 0.000000 0.000000 1.405259 -0.488660 0.589354 1.560913 1.440677 0.084040 1.465220 0.369508 0.584098 0.000000 0.000000 0.000000 
-1821.455322 915.897888 1056.238037 5.369048 -1.139610 1.699149 -0.280371 5.805661 -1.800771 -0.131226 -1.171085 0.418030 -0.176698 1.095936 -0.278493 0.855400 4.774945 -2.305006 0.000000 0.000000 0.000000 0.003206 2.206844 0.584683 0.059590 2.227816 1.340523 -0.511071 1.394821 -1.682359 0.000000 0.000000 0.000000 1.856547 0.037845 -0.102956 0.198034 -0.193841 1.306498 0.808358 0.848970 3.755219 0.000000 0.000000 0.000000 1.102418 0.852777 -3.875850 1.057138 6.952220 0.913503 0.814239 -7.290493 -0.062629 0.000000 0.000000 0.000000 1.435494 -0.470507 0.560385 1.587403 1.441398 0.090161 1.490227 0.354595 0.598246 0.000000 0.000000 0.000000 
-1821.556152 916.252136 1056.277954 5.279915 -1.150651 1.705189 -0.293485 5.817479 -1.773421 -0.148983 -1.169502 0.409047 -0.193276 1.092803 -0.270690 0.861431 4.767063 -2.315773 0.000000 0.000000 0.000000 0.015490 2.129997 0.530898 0.057625 2.151458 1.269333 -0.420518 0.989068 -1.524044 0.000000 0.000000 0.000000 1.902399 0.015398 -0.079198 0.250751 -0.218404 1.612050 0.847449 0.963812 3.908726 0.000000 0.000000 0.000000 1.134956 0.841019 -3.912796 1.088439 6.974288 0.922283 0.844534 -7.293706 -0.049558 0.000000 0.000000 0.000000 1.470741 -0.447196 0.526138 1.618007 1.442819 0.099288 1.519271 0.337961 0.614544 0.000000 0.000000 0.000000 
-1821.669434 916.599243 1056.329956 5.185517 -1.156192 1.713990 -0.302822 5.820144 -1.750964 -0.162198 -1.169471 0.402419 -0.205622 1.091229 -0.265601 0.863400 4.767372 -2.319653 0.000000 0.000000 0.000000 0.019708 2.039931 0.472377 0.052513 2.060878 1.179159 -0.324709 0.554094 -1.355300 0.000000 0.000000 0.000000 1.941825 -0.004214 -0.053434 0.301302 -0.239398 1.893854 0.871255 1.026963 4.004510 0.000000 0.000000 0.000000 1.169333 0.827596 -3.948974 1.121688 6.984952 0.924273 0.876144 -7.289104 -0.035440 0.000000 0.000000 0.000000 1.507926 -0.429505 0.488776 1.650584 1.443085 0.108809 1.550486 0.323563 0.631378 0.000000 0.000000 0.000000 
-1821.794189 916.919128 1056.397949 5.085385 -1.149081 1.727270 -0.304964 5.807891 -1.738992 -0.166497 -1.167923 0.401566 -0.209774 1.087702 -0.265779 0.859163 4.779684 -2.312951 0.000000 0.000000 0.000000 0.006939 1.937966 0.410014 0.044459 1.956472 1.072496 -0.224503 0.097055 -1.174218 0.000000 0.000000 0.000000 1.969527 -0.023307 -0.019104 0.348014 -0.258474 2.143666 0.880192 1.035757 4.045741 0.000000 0.000000 0.000000 1.205466 0.808937 -3.981823 1.157086 6.975313 0.913442 0.908746 -7.271617 -0.020105 0.000000 0.000000 0.000000 1.546516 -0.423909 0.447209 1.684756 1.439546 0.119156 1.583824 0.313404 0.648334 0.000000 0.000000 0.000000 
-1821.930420 917.231995 1056.478027 4.979825 -1.136196 1.743280 -0.302945 5.785375 -1.731884 -0.165850 -1.166918 0.403171 -0.209264 1.085286 -0.268030 0.851070 4.800556 -2.299774 0.000000 0.000000 0.000000 -0.014442 1.822828 0.345452 0.032531 1.837792 0.943765 -0.119106 -0.389733 -0.982026 0.000000 0.000000 0.000000 1.990643 -0.039731 0.018858 0.392060 -0.274107 2.366762 0.874180 0.993091 4.030504 0.000000 0.000000 0.000000 1.243492 0.788416 -4.013810 1.194508 6.954235 0.895602 0.942717 -7.246760 -0.003723 0.000000 0.000000 0.000000 1.587214 -0.423791 0.402388 1.721012 1.434215 0.129990 1.619507 0.305832 0.665838 0.000000 0.000000 0.000000 
-1822.063477 917.553162 1056.551025 4.878389 -1.131567 1.758357 -0.302864 5.764356 -1.720166 -0.167749 -1.163285 0.403845 -0.211225 1.080273 -0.269425 0.844730 4.820038 -2.289757 0.000000 0.000000 0.000000 -0.030850 1.690048 0.282278 0.020480 1.701856 0.807978 -0.025395 -0.836941 -0.816824 0.000000 0.000000 0.000000 2.004264 -0.052978 0.053622 0.429051 -0.286092 2.547089 0.860942 0.930381 3.985856 0.000000 0.000000 0.000000 1.280311 0.775033 -4.047040 1.230338 6.938497 0.881576 0.975517 -7.225801 0.011909 0.000000 0.000000 0.000000 1.626655 -0.416021 0.359096 1.755870 1.431226 0.139468 1.653345 0.294705 0.683212 0.000000 0.000000 0.000000 
-1822.183472 917.886597 1056.612061 4.783673 -1.140910 1.771793 -0.306606 5.747457 -1.699686 -0.174709 -1.158515 0.401703 -0.217889 1.074015 -0.267515 0.841753 4.838316 -2.286111 0.000000 0.000000 0.000000 -0.040212 1.534717 0.219952 0.009479 1.543895 0.666168 0.052067 -1.223201 -0.688891 0.000000 0.000000 0.000000 2.007322 -0.060797 0.084787 0.458490 -0.291770 2.680581 0.840098 0.847548 3.909931 0.000000 0.000000 0.000000 1.315414 0.773526 -4.083102 1.263728 6.933293 0.875836 1.006697 -7.213443 0.026312 0.000000 0.000000 0.000000 1.664487 -0.394953 0.318679 1.788895 1.432487 0.146554 1.684579 0.277891 0.700533 0.000000 0.000000 0.000000 
-1822.300293 918.228333 1056.666992 4.692678 -1.158118 1.784297 -0.312465 5.731397 -1.673811 -0.184512 -1.150727 0.397624 -0.227220 1.064651 -0.264295 0.841094 4.856374 -2.286861 0.000000 0.000000 0.000000 -0.043257 1.361689 0.160329 -0.001042 1.368632 0.516437 0.118432 -1.569993 -0.588295 0.000000 0.000000 0.000000 2.004425 -0.065127 0.113284 0.480592 -0.293667 2.770048 0.812190 0.744000 3.806295 0.000000 0.000000 0.000000 1.349425 0.778711 -4.120316 1.295681 6.933462 0.873780 1.036820 -7.205161 0.040006 0.000000 0.000000 0.000000 1.701227 -0.366627 0.279831 1.820728 1.436165 0.152125 1.714168 0.257760 0.717769 0.000000 0.000000 0.000000 
-1822.425659 918.577271 1056.713013 4.607733 -1.178605 1.795835 -0.318640 5.720790 -1.648542 -0.194696 -1.144228 0.392470 -0.236834 1.057364 -0.260350 0.839222 4.866816 -2.283933 0.000000 0.000000 0.000000 -0.043469 1.179172 0.108045 -0.008708 1.183898 0.371883 0.171769 -1.870659 -0.522025 0.000000 0.000000 0.000000 1.995277 -0.074942 0.133194 0.492236 -0.301096 2.811356 0.786319 0.652543 3.708696 0.000000 0.000000 0.000000 1.381389 0.783842 -4.157033 1.325822 6.940961 0.872362 1.065222 -7.200542 0.052724 0.000000 0.000000 0.000000 1.736089 -0.336282 0.240868 1.850425 1.439895 0.159440 1.741833 0.237994 0.734070 0.000000 0.000000 0.000000 
